# xmcd
#
# Track frame offsets:
#	150
#	18243
#	34422
#	50250
#	65236
#	82383
#	99331
#	113496
#	127588
#	140790
#	155156
#	174339
#
# Disc length: 2518 seconds
# Revision: 0
# Processed by: cddbd v1.5.2PL0 Copyright (c) Steve Scherf et al.
# Submitted via: dBpowerAMP V12.0
#
DISCID=a109d40c
DTITLE=Terry Robbins - Long Live The Fiddle and Steel
DYEAR=2015
DGENRE=Country
TTITLE0=Long Live The Fiddle And Steel
TTITLE1=Gettin' Taller
TTITLE2=I Never Thought Losing Her Would Hurt So Bad
TTITLE3=Just Gettin' Over you
TTITLE4=I Love You More Than I Love Bacon
TTITLE5=On The Morning
TTITLE6=Scratchin' Feels Good
TTITLE7=That's Why I'm Not Crying Over You
TTITLE8=Unobstructed View
TTITLE9=On The Days That End In "Y"
TTITLE10=When I'm Holding You
TTITLE11=A Thousand Miles Away From You
EXTD=
EXTT0=
EXTT1=
EXTT2=
EXTT3=
EXTT4=
EXTT5=
EXTT6=
EXTT7=
EXTT8=
EXTT9=
EXTT10=
EXTT11=
PLAYORDER=
